# xmcd
#
# Track frame offsets:
#	187
#	12980
#	26027
#	36835
#	50475
#	65747
#	81435
#	95760
#	109962
#	120937
#	132165
#	144110
#	158832
#	171535
#	182997
#	192535
#	206150
#	219520
#	231077
#	242525
#
# Disc length: 3365
#
# Revision: 2
# Processed by: cddbd v1.5.1PL0 Copyright (c) Steve Scherf et al.
# Submitted via: CDex 1.51
# Normalized: r0:DSETVAR1,TDELIM( - ),TSWAP
#
DISCID=280d2314
DTITLE=Various Artist - BLOWIN' THE BLUES:THE BLUES HARP ANTHOLOGY
DYEAR=1996
DGENRE=Blues
TTITLE0=LITTLE WALTER - BACK TRACK
TTITLE1=LITTLE WALTER - AH'W BABY
TTITLE2=LITTLE WALTER - WHO
TTITLE3=LITTLE WALTER - BOOGIE
TTITLE4=SONNY BOY WILLIAMSON - CROSS MY HEART
TTITLE5=SONNY BOY WILLIAMSON - NINE BELOW ZERO
TTITLE6=BABY FACE LEROY FOSTER - MY HEAD CAN'T REST NO MORE
TTITLE7=BABY FACE LEROY FOSTER - TAKE A LITTLE WALK WITH ME
TTITLE8=BILLY BOY ARNOLD - YOU GOT TO LOVE ME BABY
TTITLE9=EDDIE BURNS - BISCUIT BANKING MAMA
TTITLE10=EDDIE BURNS - SUPERSTITION
TTITLE11=FOREST CITY JOE - A MEMORY OF SONNY BOY
TTITLE12=FOREST CITY JOE - A WOMAN ON EVERY STREET
TTITLE13=DR.ROSS - COUNTRY CLOWN
TTITLE14=JOE HILL LOUIS - DOROTHY MAE
TTITLE15=BUSTER BROWN - CRAWLIN' KINGSNAKE
TTITLE16=BUSTER BROWN - IN THE PRESENCE OF YOU
TTITLE17=BUSTER BROWN - HOO DOO DOCTOR
TTITLE18=BUSTER BROWN - NO MORE
TTITLE19=BUSTER BROWN - WHAT DO YOU WANT ME TO DO
EXTD=YEAR: 1996
EXTT0=
EXTT1=
EXTT2=
EXTT3=
EXTT4=
EXTT5=
EXTT6=
EXTT7=
EXTT8=
EXTT9=
EXTT10=
EXTT11=
EXTT12=
EXTT13=
EXTT14=
EXTT15=
EXTT16=
EXTT17=
EXTT18=
EXTT19=
PLAYORDER=
